<?xml version="1.0" encoding="UTF-8" standalone="no"?>
<!DOCTYPE svg PUBLIC "-//W3C//DTD SVG 1.1//EN"
 "http://www.w3.org/Graphics/SVG/1.1/DTD/svg11.dtd">
<!-- Generated by graphviz version 2.40.1 (20161225.0304)
 -->
<!-- Title: G Pages: 1 -->
<svg width="560pt" height="432pt"
 viewBox="0.00 0.00 560.16 431.63" xmlns="http://www.w3.org/2000/svg" xmlns:xlink="http://www.w3.org/1999/xlink">
<g id="graph0" class="graph" transform="scale(1 1) rotate(0) translate(4 427.6274)">
<title>G</title>
<polygon fill="#ffffff" stroke="transparent" points="-4,4 -4,-427.6274 556.1574,-427.6274 556.1574,4 -4,4"/>
<!-- A0 -->
<g id="node1" class="node">
<title>A0</title>
<g transform="translate(65.1275,-106.6274)" style="fill:none;stroke:black;stroke-width:1px"><circle cx="0" cy="-20" r="7.5" />
                <line x1="0" y1="-12.5" x2="0" y2="5" />
                <line x1="-15" y1="-5" x2="15" y2="-5" />
                <line x1="0" y1="5" x2="-15" y2="17" />
                <line x1="0" y1="5" x2="15" y2="17" /></g>
<text text-anchor="middle" x="65.1275" y="-81.6274" font-family="Helvetica,sans-Serif" font-size="10.00" fill="#000000">Passenger</text>
</g>
<!-- A2 -->
<g id="node3" class="node">
<title>A2</title>
<ellipse fill="none" stroke="#000000" cx="251.7444" cy="-189.6274" rx="58.0498" ry="18"/>
<text text-anchor="middle" x="251.7444" y="-186.6274" font-family="Helvetica,sans-Serif" font-size="10.00" fill="#000000">Create Account</text>
</g>
<!-- A0&#45;&gt;A2 -->
<g id="edge1" class="edge">
<title>A0&#45;&gt;A2</title>
<path fill="none" stroke="#000000" d="M118.5884,-134.8703C138.1825,-143.8982 160.6125,-153.9734 181.255,-162.6274 191.8904,-167.0861 203.5432,-171.6699 214.2573,-175.7659"/>
</g>
<!-- A3 -->
<g id="node4" class="node">
<title>A3</title>
<ellipse fill="none" stroke="#000000" cx="251.7444" cy="-135.6274" rx="59.8816" ry="18"/>
<text text-anchor="middle" x="251.7444" y="-132.6274" font-family="Helvetica,sans-Serif" font-size="10.00" fill="#000000">Purchase Ticket</text>
</g>
<!-- A0&#45;&gt;A3 -->
<g id="edge2" class="edge">
<title>A0&#45;&gt;A3</title>
<path fill="none" stroke="#000000" d="M118.3547,-117.0432C143.0253,-120.4804 172.3114,-124.5606 197.1491,-128.021"/>
</g>
<!-- A4 -->
<g id="node5" class="node">
<title>A4</title>
<ellipse fill="none" stroke="#000000" cx="251.7444" cy="-81.6274" rx="53.0101" ry="18"/>
<text text-anchor="middle" x="251.7444" y="-78.6274" font-family="Helvetica,sans-Serif" font-size="10.00" fill="#000000">Cancel Ticket</text>
</g>
<!-- A0&#45;&gt;A4 -->
<g id="edge3" class="edge">
<title>A0&#45;&gt;A4</title>
<path fill="none" stroke="#000000" d="M118.3547,-101.6412C144.9645,-97.6487 176.9439,-92.8505 202.9191,-88.9532"/>
</g>
<!-- A5 -->
<g id="node6" class="node">
<title>A5</title>
<ellipse fill="none" stroke="#000000" cx="251.7444" cy="-22.6274" rx="70.4787" ry="22.7556"/>
<text text-anchor="middle" x="251.7444" y="-25.6274" font-family="Helvetica,sans-Serif" font-size="10.00" fill="#000000">View Scheduled</text>
<text text-anchor="middle" x="251.7444" y="-13.6274" font-family="Helvetica,sans-Serif" font-size="10.00" fill="#000000">Flights</text>
</g>
<!-- A0&#45;&gt;A5 -->
<g id="edge4" class="edge">
<title>A0&#45;&gt;A5</title>
<path fill="none" stroke="#000000" d="M118.52,-84.1185C138.206,-74.7717 160.7139,-64.1535 181.255,-54.6274 190.7651,-50.2171 201.0238,-45.5236 210.6921,-41.1289"/>
</g>
<!-- A1 -->
<g id="node2" class="node">
<title>A1</title>
<g transform="translate(65.1275,-360.6274)" style="fill:none;stroke:black;stroke-width:1px"><circle cx="0" cy="-20" r="7.5" />
                <line x1="0" y1="-12.5" x2="0" y2="5" />
                <line x1="-15" y1="-5" x2="15" y2="-5" />
                <line x1="0" y1="5" x2="-15" y2="17" />
                <line x1="0" y1="5" x2="15" y2="17" /></g>
<text text-anchor="middle" x="65.1275" y="-335.6274" font-family="Helvetica,sans-Serif" font-size="10.00" fill="#000000">Maintainer</text>
</g>
<!-- A6 -->
<g id="node7" class="node">
<title>A6</title>
<ellipse fill="none" stroke="#000000" cx="251.7444" cy="-243.6274" rx="57.8743" ry="18"/>
<text text-anchor="middle" x="251.7444" y="-240.6274" font-family="Helvetica,sans-Serif" font-size="10.00" fill="#000000">Manage Flights</text>
</g>
<!-- A1&#45;&gt;A6 -->
<g id="edge5" class="edge">
<title>A1&#45;&gt;A6</title>
<path fill="none" stroke="#000000" d="M112.6349,-327.5581C118.5994,-322.9114 124.5913,-318.1852 130.255,-313.6274 153.3528,-295.0397 155.7217,-285.696 181.255,-270.6274 190.5095,-265.1659 201.0676,-260.4329 211.1446,-256.5221"/>
</g>
<!-- A7 -->
<g id="node8" class="node">
<title>A7</title>
<ellipse fill="none" stroke="#000000" cx="251.7444" cy="-351.6274" rx="62.0571" ry="18"/>
<text text-anchor="middle" x="251.7444" y="-348.6274" font-family="Helvetica,sans-Serif" font-size="10.00" fill="#000000">Manage Aircrafts</text>
</g>
<!-- A1&#45;&gt;A7 -->
<g id="edge6" class="edge">
<title>A1&#45;&gt;A7</title>
<path fill="none" stroke="#000000" d="M118.1052,-360.2208C140.7344,-358.7657 167.2825,-357.0586 190.7278,-355.551"/>
</g>
<!-- A8 -->
<g id="node9" class="node">
<title>A8</title>
<ellipse fill="none" stroke="#000000" cx="251.7444" cy="-297.6274" rx="60.8864" ry="18"/>
<text text-anchor="middle" x="251.7444" y="-294.6274" font-family="Helvetica,sans-Serif" font-size="10.00" fill="#000000">Manage Airports</text>
</g>
<!-- A1&#45;&gt;A8 -->
<g id="edge7" class="edge">
<title>A1&#45;&gt;A8</title>
<path fill="none" stroke="#000000" d="M118.1052,-344.891C148.1697,-334.2582 185.1514,-321.1791 212.5843,-311.477"/>
</g>
<!-- A9 -->
<g id="node10" class="node">
<title>A9</title>
<ellipse fill="none" stroke="#000000" cx="251.7444" cy="-405.6274" rx="64.7458" ry="18"/>
<text text-anchor="middle" x="251.7444" y="-402.6274" font-family="Helvetica,sans-Serif" font-size="10.00" fill="#000000">Generate Reports</text>
</g>
<!-- A1&#45;&gt;A9 -->
<g id="edge8" class="edge">
<title>A1&#45;&gt;A9</title>
<path fill="none" stroke="#000000" d="M118.1052,-375.5506C144.1827,-381.4196 175.4643,-388.4598 201.2047,-394.253"/>
</g>
<!-- A11 -->
<g id="node12" class="node">
<title>A11</title>
<ellipse fill="none" stroke="#000000" cx="488.8811" cy="-135.6274" rx="63.0535" ry="18"/>
<text text-anchor="middle" x="488.8811" y="-132.6274" font-family="Helvetica,sans-Serif" font-size="10.00" fill="#000000">Confirm Payment</text>
</g>
<!-- A3&#45;&gt;A11 -->
<g id="edge12" class="edge">
<title>A3&#45;&gt;A11</title>
<path fill="none" stroke="#000000" stroke-dasharray="5,2" d="M322.2998,-135.6274C355.0463,-135.6274 393.672,-135.6274 425.4807,-135.6274"/>
<polygon fill="#000000" stroke="#000000" points="311.8905,-135.6274 321.8906,-131.1275 316.8905,-135.6275 321.8905,-135.6275 321.8905,-135.6275 321.8905,-135.6275 316.8905,-135.6275 321.8905,-140.1275 311.8905,-135.6274 311.8905,-135.6274"/>
<text text-anchor="middle" x="373.9192" y="-138.6274" font-family="Helvetica,sans-Serif" font-size="10.00" fill="#000000">&lt;&lt;extend&gt;&gt;</text>
</g>
<!-- A12 -->
<g id="node13" class="node">
<title>A12</title>
<ellipse fill="none" stroke="#000000" cx="488.8811" cy="-81.6274" rx="59.7202" ry="18"/>
<text text-anchor="middle" x="488.8811" y="-78.6274" font-family="Helvetica,sans-Serif" font-size="10.00" fill="#000000">Process Refund</text>
</g>
<!-- A4&#45;&gt;A12 -->
<g id="edge13" class="edge">
<title>A4&#45;&gt;A12</title>
<path fill="none" stroke="#000000" stroke-dasharray="5,2" d="M315.4383,-81.6274C350.6901,-81.6274 394.2447,-81.6274 428.8888,-81.6274"/>
<polygon fill="#000000" stroke="#000000" points="305.2581,-81.6274 315.2582,-77.1275 310.2581,-81.6275 315.2581,-81.6275 315.2581,-81.6275 315.2581,-81.6275 310.2581,-81.6275 315.2581,-86.1275 305.2581,-81.6274 305.2581,-81.6274"/>
<text text-anchor="middle" x="373.9192" y="-84.6274" font-family="Helvetica,sans-Serif" font-size="10.00" fill="#000000">&lt;&lt;extend&gt;&gt;</text>
</g>
<!-- A10 -->
<g id="node11" class="node">
<title>A10</title>
<g transform="translate(65.1275,-265.6274)" style="fill:none;stroke:black;stroke-width:1px"><circle cx="0" cy="-20" r="7.5" />
                <line x1="0" y1="-12.5" x2="0" y2="5" />
                <line x1="-15" y1="-5" x2="15" y2="-5" />
                <line x1="0" y1="5" x2="-15" y2="17" />
                <line x1="0" y1="5" x2="15" y2="17" /></g>
<text text-anchor="middle" x="65.1275" y="-240.62740000000002" font-family="Helvetica,sans-Serif" font-size="10.00" fill="#000000">Manage Entities</text>
</g>
<!-- A10&#45;&gt;A6 -->
<g id="edge9" class="edge">
<title>A10&#45;&gt;A6</title>
<path fill="none" stroke="#000000" d="M130.397,-259.8836C149.2851,-257.3533 169.8631,-254.5966 188.6178,-252.0841"/>
<polygon fill="none" stroke="#000000" points="189.0861,-255.5527 198.5328,-250.7559 188.1566,-248.6147 189.0861,-255.5527"/>
</g>
<!-- A10&#45;&gt;A7 -->
<g id="edge10" class="edge">
<title>A10&#45;&gt;A7</title>
<path fill="none" stroke="#000000" d="M130.3998,-301.2818C146.8723,-309.1961 164.61,-317.4411 181.255,-324.6274 188.4456,-327.7319 196.1207,-330.8584 203.6621,-333.8275"/>
<polygon fill="none" stroke="#000000" points="202.5078,-337.1338 213.0966,-337.4906 205.0414,-330.6084 202.5078,-337.1338"/>
</g>
<!-- A10&#45;&gt;A8 -->
<g id="edge11" class="edge">
<title>A10&#45;&gt;A8</title>
<path fill="none" stroke="#000000" d="M130.397,-278.7702C148.932,-281.6505 169.0943,-284.7837 187.5641,-287.6539"/>
<polygon fill="none" stroke="#000000" points="187.2111,-291.141 197.63,-289.2181 188.286,-284.224 187.2111,-291.141"/>
</g>
</g>
</svg>
